<?xml version="1.0" encoding="UTF-8"?>
<svg id="Camada_1" xmlns="http://www.w3.org/2000/svg" version="1.1" viewBox="0 0 128 128">
  <!-- Generator: Adobe Illustrator 29.8.2, SVG Export Plug-In . SVG Version: 2.1.1 Build 3)  -->
  <defs>
    <style>
      .st0 {
        fill: #697c8b;
      }

      .st1 {
        fill: #4a5e6d;
      }

      .st2 {
        fill: #f0f7f9;
      }

      .st3 {
        fill: #07212e;
      }

      .st4 {
        fill: #0b2637;
      }

      .st5 {
        fill: #f9fbfb;
      }
    </style>
  </defs>
  <path class="st5" d="M104.83,37.16c.76.93-1.77.37-1.11-.28.05-.05,1.07.24,1.11.28Z"/>
  <g>
    <path class="st1" d="M32.93,63.81c.6,2.42,2.74,4.14,5.24,4.21s4.72-1.54,5.45-3.93l17.02.02c-.01.08-.01.2,0,.28.02.16.11.26.28.28.82.73,1.49,2.05,2.3,2.57,2.95,1.9,7.5.17,8.54-3.12h13.06c-.45,6.42-.47,16.66,0,23.07h-8.62c-.15-2.23-1.15-3.41-3.46-3.62-5.02-.47-10.76.38-15.86,0-7.79.74-17.33-.92-25.01,0-1.91.23-1.98,1.09-2.91,2.23-.03.04-.49-.15-.57.18s.1,1.12.01,1.22c-.32.35-8.23-.27-9.45,0-.57-7.16-.37-16.13,0-23.35,1.3.42,2.65-.02,3.73.01.25,0,.48.26.58.26h4.72c.11,0,.47-.29.84-.3,1.27-.04,2.59.47,4.12,0ZM53.97,75.5c-.78-1.71.09-1.48.67-2.25,3.15-4.2-1.32-4.1-4.43-3.87-1.89.14-2.99.47-2.13,2.71.36.95,1.95,2.04,1.99,2.19.11.45-.74,1.59-1.37,1.5-.45-.68-.8-1.69-1.78-1.37-1.55.52.43,4.13,3.44,2.76,1.28-.58.62-.75,2.22-.83.03,1.11,1.86,1.21,2.62,1.1,2.46-.35,2.54-3.99.77-2.99-.19.11-.4,1.1-1.09,1.29-.39.1-.86-.25-.91-.24ZM35.55,72.24c-.53-.54-6.66-.76-7.85-1.2-1.53.07-2.03,1.97.07,2.46s4.68.26,6.88.93c1.17.1,1.66-1.42.9-2.18ZM68.43,74.38c1.36-.38,8.53-.61,9.03-1.37.8-1.21-.5-1.94-1.65-1.93s-5.57.58-6.58.93c-1.18.41-1.09,1.38-.81,2.37ZM35.86,77.14c.45-.7-.17-1.91-1.18-1.9-.51,0-7.23,1.93-7.75,2.21-1.05.57-.2,2.2.99,2.15.97-.44,7.69-2.08,7.93-2.47ZM76.99,79.36c.61-.39.37-1.65-.44-2.12-.55-.32-6.15-1.85-6.96-1.94-1.84-.22-1.82,1.55-1.29,1.91.31.21,6.53,1.99,7.27,2.12.36.07,1.15.2,1.42.03Z"/>
    <path class="st0" d="M28.67,42.99c.19.51-.61.57-.56.69.1.25.55.39.56.97.02,1.57-2.62,4.68-3.01,6.58-.11.52,1.02.61,1.35.65.2.32.74.44.83,0,.46.03.93-.01,1.39,0l-1.67.83c2.45.07,4.92-.08,7.38,0,.73.02,1.41.29,2.2.3,15.4.32,30.92-.16,46.31-.14.28-.18.18-.56.26-.7,1.67-3.04,2.18-6.77,5-9.17v.56s.28-.28.28-.28c.28,0,.56,0,.83,0v.83c.68-.45,1.16.25,1.39.28-.69,2.24-2.19,4.27-3.11,6.48-1.66,4.01-2.98,8.91-3.28,13.25h-13.06c1.83-5.79-6.53-10.06-10.01-4.87-1.1,1.65-.86,3.15-1.11,4.87l-17.02-.02c.68-2.24-.12-4.67-1.99-6.06s-4.43-1.46-6.38-.17-2.87,3.68-2.31,5.95c-1.52.47-2.85-.04-4.12,0-.37.01-.73.3-.84.3h-4.72c-.09,0-.32-.26-.58-.26-1.08-.03-2.43.4-3.73-.01.29-5.59,2.52-13.55,6.12-17.92.7-.85,2.56-2.76,3.61-2.92Z"/>
    <path class="st2" d="M28.67,42.99c.87-.14,1.99.1,2.89,0,.9,1.85-1.8,1.19-2.89,1.67,0-.59-.45-.73-.56-.97-.05-.13.75-.18.56-.69Z"/>
    <path class="st2" d="M91.49,43.27c.31-.04,1.2-.82,1.11.13-.32.35-.86,1.03-1.39.98-.23-.02-.71-.73-1.39-.28v-.83c.46,0,.93.04,1.39,0l.14.27.14-.27Z"/>
    <path class="st2" d="M88.98,43.27l-.27.28v-.56c.34-.03.25.28.27.28Z"/>
    <path class="st0" d="M91.21,43.27c.09,0,.19.01.28,0l-.14.27-.14-.27Z"/>
    <path class="st3" d="M71.75,64.11c-1.04,3.29-5.59,5.02-8.54,3.12-.81-.52-1.48-1.83-2.3-2.57-.1-.09-.18-.19-.28-.28-.01-.08-.01-.2,0-.28.25-1.71,0-3.22,1.11-4.87,3.48-5.19,11.84-.92,10.01,4.87Z"/>
    <circle class="st3" cx="38.31" cy="62.47" r="5.54"/>
    <path class="st3" d="M53.97,75.5c-.08.02-.16.77-1.39.83-1.61.09-.95.25-2.22.83-.22-.78-1.34-.65-1.61-.9-.15-.14-.02-.43-.06-.49.63.08,1.48-1.05,1.37-1.5-.04-.15-1.63-1.24-1.99-2.19-.85-2.24.24-2.58,2.13-2.71,3.11-.22,7.58-.33,4.43,3.87-.58.77-1.44.54-.67,2.25ZM50.35,76.06c.2-.39-.18-.74-.27-.55-.2.39.18.74.27.55Z"/>
    <path class="st3" d="M35.55,72.24c.76.76.26,2.28-.9,2.18-2.2-.67-4.72-.42-6.88-.93s-1.6-2.39-.07-2.46c1.2.44,7.32.67,7.85,1.2Z"/>
    <path class="st3" d="M35.86,77.14c-.25.39-6.96,2.03-7.93,2.47-1.19.04-2.04-1.58-.99-2.15.52-.28,7.24-2.21,7.75-2.21,1.01,0,1.63,1.2,1.18,1.9Z"/>
    <path class="st3" d="M68.43,74.38c-.28-.99-.37-1.96.81-2.37,1.01-.35,5.45-.93,6.58-.93s2.45.72,1.65,1.93c-.5.75-7.67.99-9.03,1.37Z"/>
    <path class="st3" d="M76.99,79.36c-.27.17-1.06.04-1.42-.03-.74-.14-6.96-1.91-7.27-2.12-.53-.36-.55-2.14,1.29-1.91.81.1,6.41,1.62,6.96,1.94.81.47,1.05,1.73.44,2.12Z"/>
    <path class="st4" d="M53.97,75.5c.05-.01.52.34.91.24.69-.18.9-1.18,1.09-1.29,1.77-1.01,1.68,2.64-.77,2.99-.76.11-2.59,0-2.62-1.1,1.23-.07,1.31-.81,1.39-.83Z"/>
    <path class="st4" d="M48.68,75.78c.04.06-.09.35.06.49.27.25,1.39.12,1.61.9-3.01,1.37-4.99-2.24-3.44-2.76.97-.32,1.33.68,1.78,1.37Z"/>
    <path class="st0" d="M60.91,64.67c-.17-.01-.25-.12-.28-.28.1.08.18.19.28.28Z"/>
    <g>
      <path class="st4" d="M100.66,10.47c-1.15.28-.81-.98-1.82-1.12s-1.32.57-2,.78c-.42.13-1.41.01-1.46.06-.09.09.13.82-.03,1.07-.22.34-2.38.38-2.84.59-.32.14-.09.61-.24.76-.17.18-.67.06-.91.37-.47.6.45.84-1.25.83-.13-.73.19-.81.62-1.18,1.07-.94,5.57-3.73,6.87-3.98s2.97.31,3.07,1.83Z"/>
      <path class="st0" d="M93.15,37.15c.39,0,1.03,0,1.39,0,.46.01.93-.01,1.39,0,1.82.05,3.68.49,5.56.28v.28c-1.11-.11-2.41,0-3.47,0h-11.4s-.65.54-.69-.14c0-.15.52-.34.55-.42,2.22.03,4.45-.04,6.67,0Z"/>
      <path class="st4" d="M100.66,10.75c.68-.16.88,1.14,1.04,1.6.33.94.39,1.74.63,2.57-.78-.02-1.39-2.05-1.6-2.7-.35-1.08-.04-1.14-.06-1.47Z"/>
      <path class="st0" d="M27.84,37.43l5.01.14c0,.29-4.45.08-5.01.14v-.28Z"/>
      <path class="st4" d="M43.68,13.8c.13.77-.26.68-.83.28.24-.06.44-.2.83-.28Z"/>
      <path class="st5" d="M85.09,18.81l.28.56c-2.19,5.8-3.58,9.38-4.41,15.74-.45,3.44-.26,7.7-1.15,10.94l-.28-.55h-.27s0,1.11,0,1.11c-.95.09-2.07-.01-3.06,0,.17-.83-.71-.87-.56,0-12.44.13-24.89-.11-37.34.01-.84-.2-.22-5.91-.18-6.96,1.18.17.3-.86.28-1.11-.05-.77-.04-1.72,0-2.5.59-.51,1.57-1.4.28-1.39.09-.83.14-1.68.28-2.5l.28-.56c.02-.09-.02-.19,0-.28l1.1-1.3c.35-.65-.26-1.75-.27-2.03,0-.09,0-.19,0-.28l.28-.83c.03-.17-.04-.4,0-.56,1.38.26,1.73-.68.28-.56.09-.29.17-.55.28-.83.99.25.31-.75.59-1.07.1-.12,1.05-.09,1.07-.46,0-.16-.5-.32-.55-.42-.02-.05,0-.19,0-.28l1.11-.28c.18-.35-.28-.78-.28-.83,0-.09-.02-.19,0-.28,1.83.31,1.1-1.97,2.64-1.11l.14-1.39h39.47ZM45.35,21.31c.14-1.16-.41-1.16-.27,0h.27ZM46.53,25.97c.96.93,4.15.33,5.34.33,6.82,0,13.83.43,20.57,0,1.26-.08,3.42.37,4.34-.38,1.24-1.01.09-2.23-1.27-2.39-8.39-.98-18.66.75-27.25,0-1.1-.05-2.8,1.41-1.73,2.44ZM75.84,31.67c-.95-.62-7.59-.36-9.24-.37-.72,0-1.4.3-2.2.3-5.52-.02-12.4-.91-17.81-.29-2.2.25-2.06,2.56-.29,2.8h28.65c1.24.06,1.96-1.73.88-2.44ZM39.65,34.65v.28c.18-.09.18-.19,0-.28ZM45.35,41.88c0,.06-.67.83.14.56.28-.09.11-.35.14-.56h1.95c-.3.92,2.06.82,1.67,0h.83c.03.26-.15.49.17.56.57.13,2.74.22,2.33-.56h1.11c-.46.84,2.12.63,2.23.56.05-.03-.03-.4,0-.56,1.66,0,3.34,0,5,0,1.69,1.08,5.14,1.07,7.1.85.63-.07.96-.1.96-.85.19,0,.37,0,.56,0-.12.97,2.82.84,3.48.84.53,0,1.13.24.97-.57.15.02.8.02.83,0-.87.91.7.45.83.28.21-.27-.28-.79-.28-.83.01-.16.21-.81.28-1.11.05-.24.49-.61.28-1.11-.26-.05-.6.05-.83,0-.52-.13-.96-.26-1.51-.29-9.08-.52-18.66.4-27.8.02-2.55.96-.48,2.3-.42,2.77Z"/>
      <path class="st4" d="M97.04,33.82c-.19.64-.33,1.7-.58,2.28-.13.3-.81.31-.53,1.05-.46-.01-.93.01-1.39,0-.18-.44-1.21-.44-1.39,0-2.22-.04-4.45.03-6.67,0,.11-.31-.28-1.01-.25-1.5.15-2.44.75-4.5,1.36-6.84,1.41-.9,7.03-3.54,8.35-2.65,1.44.97.36,6.14,1.1,7.65Z"/>
      <path class="st1" d="M89.82,22.7c.07.49.83-.12,1.02-.23,1.12-.67,3-1.83,4.34-1.66.99.12,1.71,2.29,2.11,3.18.31.69.54.34,1.15.39-.02,3.41-.4,6.21-1.39,9.45-.74-1.51.34-6.68-1.1-7.65-1.32-.89-6.94,1.76-8.35,2.65.64-2.42,1.12-3.88,2.22-6.11Z"/>
      <path class="st1" d="M37.01,19.09c.2.2,1.09-.07.84,1.21-.04.2-.45.2-.55.38-2.64,4.67-4.32,9.89-4.18,15.36-.83.14-.44-.22-.58-.65-.43-1.28-1.23-3.38-1.36-4.63l.27-.14-.27-.14c0-.28-.01-.56,0-.83.02-.53.24-2.2.35-2.85.62-3.61,1.97-6.27,5.49-7.71Z"/>
      <path class="st0" d="M98.43,24.37c-.61-.04-.84.31-1.15-.39-.4-.88-1.12-3.05-2.11-3.18-1.34-.17-3.22.99-4.34,1.66-.19.11-.95.72-1.02.23,1.64-3.34,3.4-5.48,6.8-7.23,1.46,2.53,1.83,5.99,1.81,8.9Z"/>
      <path class="st0" d="M37.01,19.09c-3.52,1.45-4.87,4.1-5.49,7.71-.11.65-.33,2.31-.35,2.85-1.2-4.63-.2-9.6.84-14.17,2.16.13,3.56,2.2,4.99,3.6Z"/>
      <path class="st2" d="M45.63,18.81l-.14,1.39c-1.54-.86-.81,1.42-2.64,1.11.16-.77,1.96-2.37,2.78-2.5Z"/>
      <path class="st2" d="M40.07,27.98c0,.28.62,1.38.27,2.03l-1.1,1.3c.19-1.04.06-2.42.83-3.34Z"/>
      <path class="st2" d="M42.85,21.59s.46.48.28.83l-1.11.28c.02-.56.34-.88.83-1.11Z"/>
      <path class="st2" d="M38.68,34.65c1.29-.01.32.88-.28,1.39.03-.62.23-1,.28-1.39Z"/>
      <path class="st2" d="M42.01,22.98c.05.1.56.26.55.42-.02.37-.97.34-1.07.46-.28.32.4,1.32-.59,1.07.27-.69.35-1.58,1.11-1.95Z"/>
      <path class="st2" d="M38.4,38.54c.02.26.91,1.28-.28,1.11.01-.41-.07-.79.28-1.11Z"/>
      <path class="st2" d="M40.62,25.76c1.45-.13,1.1.82-.28.56.04-.18.22-.37.28-.56Z"/>
      <path class="st2" d="M79.81,46.04c-.04.14.06.37-.01.54-.18.06-.37,0-.54.01v-1.11s.27,0,.27,0l.28.55Z"/>
      <path class="st2" d="M85.09,18.81h.55c.14.44-.26.5-.28.56l-.28-.56Z"/>
      <path class="st2" d="M75.64,46.6c-.15-.87.73-.83.56,0-.19,0-.37,0-.56,0Z"/>
      <path class="st2" d="M40.07,27.7c-.02-.62.27-.79.28-.83l-.28.83Z"/>
      <path class="st2" d="M27.84,51.88c-.09.44-.64.32-.83,0,.27.03.56-.02.83,0Z"/>
      <path class="st2" d="M38.96,32.15c.08-.47.27-.53.28-.56l-.28.56Z"/>
      <path class="st0" d="M31.18,30.76c0-.09,0-.19,0-.28l.27.14-.27.14Z"/>
      <path class="st3" d="M94.54,37.15c-.35,0-1,0-1.39,0,.18-.44,1.21-.44,1.39,0Z"/>
      <path class="st4" d="M46.53,25.97c-1.06-1.03.63-2.49,1.73-2.44,8.59.75,18.86-.98,27.25,0,1.36.16,2.5,1.38,1.27,2.39-.92.75-3.08.3-4.34.38-6.73.43-13.75,0-20.57,0-1.19,0-4.38.6-5.34-.33Z"/>
      <path class="st3" d="M75.09,39.37l.56,1.11c-.07.3-.26.95-.28,1.11-.68-.22-.52.53-.56.56-.03.02-.68.02-.83,0-1.63-.26-2.76-.27-4.45-.28-.19,0-.37,0-.56,0-2.68-.01-5.38,0-8.06,0-1.66,0-3.34,0-5,0h-10.56c-.06-.47-2.12-1.81.42-2.77,9.14.39,18.72-.54,27.8-.02.56.03.99.16,1.51.29Z"/>
      <path class="st3" d="M75.84,31.67c1.08.7.36,2.5-.88,2.44h-28.65c-1.77-.24-1.91-2.55.29-2.8,5.4-.61,12.29.27,17.81.29.79,0,1.48-.3,2.2-.3,1.65,0,8.29-.25,9.24.37Z"/>
      <path class="st2" d="M68.97,41.88c0,.75-.33.78-.96.85-1.97.22-5.41.23-7.1-.85,2.68,0,5.38-.01,8.06,0Z"/>
      <path class="st2" d="M73.98,42.15c.16.81-.44.57-.97.57-.65,0-3.6.12-3.48-.84,1.68.01,2.82.02,4.45.28Z"/>
      <path class="st2" d="M52.58,41.88c.42.78-1.76.69-2.33.56-.32-.08-.15-.3-.17-.56h2.5Z"/>
      <path class="st2" d="M55.91,41.88c-.02.16.05.52,0,.56-.11.08-2.69.28-2.23-.56h2.22Z"/>
      <path class="st2" d="M49.24,41.88c.4.82-1.97.92-1.67,0h1.67Z"/>
      <path class="st2" d="M75.37,41.6s.49.56.28.83c-.14.18-1.71.63-.83-.28.04-.03-.12-.77.56-.56Z"/>
      <path class="st2" d="M75.09,39.37c.23.06.57-.04.83,0,.22.5-.23.87-.28,1.11l-.56-1.11Z"/>
      <path class="st2" d="M45.35,21.31h-.27c-.14-1.16.41-1.16.27,0Z"/>
      <path class="st2" d="M45.63,41.88c-.03.21.14.46-.14.56-.8.27-.13-.5-.14-.56h.28Z"/>
      <path class="st2" d="M39.65,34.65c.18.09.18.19,0,.28v-.28Z"/>
    </g>
    <g>
      <path class="st5" d="M62.58,91.35c-1.58,6.84-3.13,13.92-4.45,20.84l-.28-.55h-.27c-.23.49.27,1.01.28,1.11.01.25.04.61,0,.83l-.83-.83-.16,1.12c-1.29.02-2.59-.05-3.88,0-.53.02-1.12-.28-.96.56-.56,0-1.11,0-1.67,0,.43-.83-2.26-.92-1.95,0-.74,0-1.48,0-2.22,0,.43-.83-2.26-.92-1.95,0-.83,0-1.67,0-2.5,0-.03-.26.15-.48-.18-.56-.27-.06-2.77-.08-2.88,0-.05.03.03.4,0,.56-.65,0-1.3.03-1.95,0-.08-.71-.31-1.35-.3-2.09,0-.83.76-1.73-.25-1.53.1-.46.18-.93.28-1.39l.83-.97v-2.37c.11-.49.15-1.1.28-1.67,1.17.11.28-.76.28-.83-.05-.62.19-1.11.28-1.67.89-.03,1.29-.99.28-.83.03-.17-.03-.39,0-.56.82.05.67-.46.87-.94,1.11-2.64.85-2.57.8-5.18,0-.28,0-.56,0-.83.43-.66,1.75-2.37,2.37-2.5,6.2.05,12.42-.09,18.62-.01.47,0,1.24-.18,1.52.28ZM57.86,96.07c.73-.75.68-.95-.28-1.67-.29-.46-1.05-.28-1.52-.28-3.89-.04-7.78.03-11.67.01-1.22.11-1.39,2.09-.23,2.44,3.82.01,8.1.75,11.89.33.95-.1,1.18-.19,1.81-.83ZM42.77,100.86c-2.03.66-1.26,2.42.51,2.7,3.5.55,8.28-.37,11.93,0,1.45-.27,1.85-2.47.28-2.76l-12.72.05ZM41.74,107.47c-2.22.35-1.42,2.58.96,2.79,2.06.19,9.23.29,11.01-.13,1-.24,1.42-.58,1.36-1.65-.08-1.33-.66-.97-1.66-1-3-.1-8.96-.43-11.67,0Z"/>
      <path class="st2" d="M40.07,93.57c.05-1.48.9-3.23,1.11-4.72h22.23c.06.83-.69,1.88-.83,2.5-.29-.46-1.05-.28-1.52-.28-6.2-.08-12.42.06-18.62.01-.62.12-1.94,1.84-2.37,2.5Z"/>
      <path class="st2" d="M38.4,100.52c.39-1.99.86-4.25,1.67-6.11.06,2.61.32,2.54-.8,5.18-.2.48-.05.98-.87.94Z"/>
      <path class="st2" d="M52.02,114.41c-.16-.84.43-.54.96-.56,1.29-.04,2.59.03,3.88,0l.16-1.12.83.83c-.03.18,0,.41-.12.56-.42.49-4.69.26-5.72.27Z"/>
      <path class="st2" d="M36.18,110.8c1.02-.2.25.7.25,1.53,0,.73.23,1.38.3,2.09-.46-.02-.93.02-1.39,0-.21-.19.72-3.06.83-3.61Z"/>
      <path class="st2" d="M38.68,114.41c.02-.16-.05-.52,0-.56.12-.09,2.62-.07,2.88,0,.32.08.15.3.18.56-1.02,0-2.04.01-3.06,0Z"/>
      <path class="st2" d="M36.46,109.41c.25-1.13.58-2.23.83-3.34v2.37s-.83.97-.83.97Z"/>
      <path class="st2" d="M44.24,114.41c-.32-.92,2.37-.83,1.95,0-.65,0-1.3,0-1.95,0Z"/>
      <path class="st2" d="M48.41,114.41c-.32-.92,2.37-.83,1.95,0-.65,0-1.3,0-1.95,0Z"/>
      <path class="st2" d="M38.4,101.07c1.02-.15.61.8-.28.83.05-.32.24-.6.28-.83Z"/>
      <path class="st2" d="M37.85,103.58c0,.08.9.95-.28.83.06-.28-.02-.6.28-.83Z"/>
      <path class="st2" d="M58.13,112.19c-.04.23,0,.47-.28.56,0-.1-.5-.62-.28-1.11h.27s.28.55.28.55Z"/>
      <path class="st4" d="M42.77,100.86l12.72-.05c1.57.3,1.17,2.5-.28,2.76-3.65-.38-8.43.55-11.93,0-1.77-.28-2.54-2.05-.51-2.7Z"/>
      <path class="st4" d="M41.74,107.47h11.67c1,.03,1.58-.32,1.66,1,.06,1.07-.36,1.42-1.36,1.65-1.78.42-8.95.32-11.01.13-2.38-.22-3.18-2.44-.96-2.79Z"/>
      <path class="st4" d="M57.58,94.4c.96.72,1.01.92.28,1.67h-12.78s.55-.28.55-.28l-.83-.28,1.66-.56-.83-.55h11.95Z"/>
      <path class="st3" d="M57.58,94.4h-11.95s.83.55.83.55l-1.66.56.83.28-.55.28h12.78c-.63.65-.86.73-1.81.84-3.79.41-8.07-.32-11.89-.33-1.16-.34-.99-2.32.23-2.44,3.89.02,7.78-.05,11.67-.01.47,0,1.24-.18,1.52.28Z"/>
      <path class="st3" d="M53.41,107.47h-11.67c2.71-.43,8.67-.1,11.67,0Z"/>
    </g>
    <path class="st4" d="M50.35,76.06c-.1.19-.47-.16-.27-.55.1-.19.47.16.27.55Z"/>
    <g>
      <path class="st3" d="M42.85,14.08c.58.41.96.49.83-.28.16-.03.56-.46.94-.3,15.16-.14,30.35.13,45.47.3,1.71.02.78-.22,1.25-.83.24-.31.74-.19.91-.37.15-.15-.07-.62.24-.76.46-.21,2.62-.24,2.84-.59.16-.25-.06-.98.03-1.07.05-.05,1.05.07,1.46-.06.67-.21.95-.93,2-.78s.67,1.4,1.82,1.12c0,.09,0,.19,0,.28.02.32-.28.39.06,1.47.21.65.82,2.68,1.6,2.7,2.07,7.29,2.33,15.45-.83,22.51-1.88.22-3.74-.22-5.56-.28-.28-.75.4-.76.53-1.05.25-.58.39-1.64.58-2.28.98-3.24,1.37-6.04,1.39-9.45.02-2.9-.35-6.37-1.81-8.9-3.41,1.75-5.16,3.89-6.8,7.23-1.1,2.24-1.59,3.7-2.22,6.11s-1.21,4.4-1.36,6.84c-.03.48.36,1.19.25,1.5-.03.07-.56.26-.55.42.04.68.64.14.69.14h11.4c1.06,0,2.36-.11,3.47,0,.99.1,2.34.61,3.25,1.06,1.66.83,2.69,2.28,4.26,3.11.05.09.06.42.28.83.06.1.23.18.28.28.21.42.5.71.56.83,1.6,3.16,2.81,6.44,3.07,10.13.45,6.47.53,17.51-.02,23.91-.38,4.4-2.34,8.74-5.13,12.1-3.34,4.02-8.19,9.3-11.91,12.96-1,.99-2.36,1.88-3.3,2.96-9.28.46-18.67.03-27.98.22l-3.08,13.31H28.67l3.06-13.06h-5.14c-.66,0-3.42-1.29-4.12-1.72-4.83-2.99-7.47-8.77-8.53-14.12l1.39.28c.58-1.14-.39-2.45-1.67-2.23-.04-.39-.24-.78-.28-1.39.43-.12.42-1.02,0-1.11-.38-9.65-.89-23.53,2.03-32.58,1.58-4.92,6.68-15.15,12.43-15.78.55-.06,5.01.15,5.01-.14l-5.01-.14c-3.65-6.81-3.4-20.48.6-27.06,2.26-3.72,6.66-.21,9.22,1.54.78.53,2.88,2.56,3.46,2.69.25.06,1.25-.39,1.74-.52ZM31.18,29.65c-.01.28,0,.56,0,.83,0,.09,0,.19,0,.28.13,1.25.93,3.35,1.36,4.63.15.43-.24.8.58.65-.14-5.47,1.53-10.69,4.18-15.36.1-.18.52-.18.55-.38.25-1.28-.64-1.01-.84-1.21-1.43-1.4-2.84-3.47-4.99-3.6-1.05,4.57-2.05,9.54-.84,14.17ZM42.85,21.31c-.02.08,0,.19,0,.28-.49.23-.82.55-.83,1.11,0,.09-.02.23,0,.28-.76.36-.84,1.26-1.11,1.95-.11.28-.18.55-.28.83-.06.19-.23.38-.28.56-.04.16.03.38,0,.56,0,.04-.3.22-.28.83,0,.09,0,.19,0,.28-.78.92-.64,2.29-.83,3.34-.02.09.02.19,0,.28,0,.03-.2.09-.28.56-.14.82-.19,1.67-.28,2.5-.04.39-.25.77-.28,1.39-.04.78-.05,1.73,0,2.5-.35.32-.27.7-.28,1.11-.03,1.05-.65,6.76.18,6.96,12.44-.12,24.9.12,37.34-.01.19,0,.37,0,.56,0,.99-.01,2.1.09,3.06,0,.18-.02.37.05.54-.01.07-.17-.03-.4.01-.54.89-3.24.7-7.5,1.15-10.94.84-6.36,2.22-9.94,4.41-15.74.02-.05.42-.11.28-.55h-.55s-39.47,0-39.47,0c-.82.13-2.62,1.73-2.78,2.5ZM18.95,63.83c-.37,7.22-.57,16.19,0,23.35.27,3.39.96,5.87,2.67,8.86,1.22,2.13,3.4,4.23,6.07,4.49.79.07,4.68.1,5.15-.15.94-.51,1.48-5.8,1.95-7.08h-5.14c-.79,0-.92-1.68-.97-2.37-.12-1.86.51-3.39.27-5.14.93-1.14,1.01-2,2.91-2.23,7.68-.93,17.22.73,25.01,0,5.11.38,10.84-.47,15.86,0,2.31.22,3.31,1.39,3.46,3.62.08,1.2.19,4.08,0,5.14-.04.23-.22.69-.42.69h-7.23c-1.72,0-1.35,2.46-1.55,3.45-.17.84-1.31,3.98-.35,4.29l22.33.04c.2-.93-.61-1.35-.94-1.97-1.72-3.15-2.94-7.84-3.22-11.65-.47-6.41-.45-16.64,0-23.07.31-4.34,1.62-9.25,3.28-13.25.92-2.21,2.42-4.24,3.11-6.48.52.05,1.06-.63,1.39-.98.1-.95-.8-.17-1.11-.13-.09.01-.19,0-.28,0-.45.04-.93,0-1.39,0-.28,0-.56,0-.83,0-.02,0,.06-.31-.28-.28-2.83,2.4-3.34,6.13-5,9.17-.58-.21-1.17-.27-1.79-.29-17.4-.65-35.22.45-52.68.01-.46-.01-.93.03-1.39,0-.27-.02-.57.03-.83,0-.33-.04-1.45-.12-1.35-.65.39-1.9,3.04-5.01,3.01-6.58,1.09-.48,3.8.18,2.89-1.67-.91.11-2.03-.13-2.89,0-1.05.17-2.91,2.08-3.61,2.92-3.6,4.37-5.83,12.33-6.12,17.92ZM104.73,45.87c-.37-.35-1.46-1.12-1.92-1.28-3.81-1.28-6.59,1.95-8.33,4.86-2.09,3.49-2.51,7.93-3.56,11.73.97,9.97-1.51,22.99.64,32.46.26,1.15,1.87,2.84,2.29,4.1l4.21-3.98c1.65-3.08,4.84-5.4,7.03-8.11,5.74-7.09,1.54-19.65,2.59-28.03.3-2.39.2-1.7-.06-3.95-.36-3.09-.36-5.41-2.9-7.8ZM40.07,93.57c0,.28,0,.56,0,.83-.81,1.86-1.28,4.12-1.67,6.11-.03.17.03.38,0,.56-.04.23-.23.51-.28.83-.08.56-.33,1.04-.28,1.67-.29.23-.21.55-.28.83-.13.57-.16,1.17-.28,1.67-.26,1.11-.59,2.21-.83,3.34-.1.46-.18.93-.28,1.39-.12.55-1.04,3.42-.83,3.61.46.02.93-.02,1.39,0,.64.03,1.3,0,1.95,0,1.02.01,2.04,0,3.06,0,.83,0,1.67,0,2.5,0,.65,0,1.3,0,1.95,0,.74,0,1.48,0,2.22,0,.65,0,1.3,0,1.95,0,.56,0,1.11,0,1.67,0,1.03-.01,5.3.22,5.72-.27.13-.15.09-.39.12-.56.04-.22.01-.59,0-.83.28-.09.23-.33.28-.56,1.32-6.93,2.87-14,4.45-20.84.14-.62.89-1.67.83-2.5h-22.23c-.21,1.5-1.06,3.24-1.11,4.72Z"/>
      <path class="st4" d="M13.67,88.57c1.28-.22,2.24,1.09,1.67,2.23l-1.39-.28c-.15-.76-.19-1.15-.28-1.95Z"/>
      <path class="st4" d="M13.39,87.18c-.02-.37.01-.74,0-1.11.42.09.43,1,0,1.11Z"/>
      <path class="st4" d="M104.73,45.87c2.54,2.39,2.54,4.71,2.9,7.8.26,2.25.36,1.56.06,3.95-1.05,8.38,3.15,20.94-2.59,28.03-2.2,2.72-5.39,5.03-7.03,8.11l-4.21,3.98c-.42-1.26-2.03-2.95-2.29-4.1-2.16-9.47.32-22.49-.64-32.46,1.05-3.79,1.47-8.23,3.56-11.73,1.74-2.91,4.52-6.14,8.33-4.86.46.15,1.55.92,1.92,1.28Z"/>
      <path class="st4" d="M84.82,87.18c.28,3.81,1.5,8.5,3.22,11.65.34.62,1.14,1.04.94,1.97l-22.33-.04c-.96-.31.18-3.44.35-4.29.2-.99-.17-3.45,1.55-3.45h7.23c.2,0,.37-.46.42-.69.19-1.06.08-3.94,0-5.14h8.62Z"/>
      <path class="st4" d="M28.95,85.79c.24,1.75-.4,3.27-.27,5.14.05.69.18,2.37.97,2.37h5.14c-.46,1.28-1.01,6.57-1.95,7.08-.47.26-4.36.23-5.15.15-2.68-.25-4.86-2.36-6.07-4.49-1.71-2.99-2.4-5.47-2.67-8.86,1.23-.26,9.13.35,9.45,0,.09-.1-.09-.9-.01-1.22s.54-.14.57-.18Z"/>
      <path class="st2" d="M83.7,52.16c-.08.14.03.53-.26.7-15.38-.01-30.9.46-46.31.14-.79-.02-1.47-.28-2.2-.3-2.45-.07-4.92.08-7.38,0l1.67-.83c17.46.43,35.28-.66,52.68-.01.62.02,1.21.08,1.79.29Z"/>
    </g>
  </g>
</svg>